<svg x-show="selectedType ===2" fill="none" height="27" viewBox="0 0 27 27" width="27" xmlns="http://www.w3.org/2000/svg" xmlns:xlink="http://www.w3.org/1999/xlink"><path d="m13.4197 26.8394c-7.40016 0-13.4197-6.0204-13.4197-13.4197 0-7.39933 6.01954-13.4197 13.4197-13.4197 7.4001 0 13.4197 6.01954 13.4197 13.4197 0 7.4001-6.0196 13.4197-13.4197 13.4197z" fill="currentColor"></path><path d="m20.9327 7.69939c-.7754-.84059-1.4781-1.40786-2.3187-.63333l-8.5916 7.92034-2.1684-2.4772c-.75307-.8595-1.51273-.3715-2.37314.3815-.86041.7531-1.49787 1.4863-.74315 2.3451l2.24019 2.5597 1.82899 2.0908c.11675.1333.25901.2419.41838.3195.15938.0775.33265.1223.50962.1319.17697.0095.35411-.0164.52081-.0764.1668-.0599.3199-.1526.4504-.2726l2.042-1.8827 8.6701-7.9938c.8406-.78036.2865-1.57635-.4855-2.41281z" fill="#fff"></path></svg>