<svg width="30" height="30" viewBox="0 0 30 30" fill="none" xmlns="http://www.w3.org/2000/svg">
    <g clip-path="url(#clip0_1804_455)">
        <path d="M26 2.5H25C24.7 2.5 24.5 2.7 24.5 3V5C24.5 7.2 22.7 9 20.5 9H9.5C7.3 9 5.5 7.2 5.5 5V3C5.5 2.7 5.3 2.5 5 2.5H4C2.35 2.5 1 3.85 1 5.5V27C1 28.65 2.35 30 4 30H26C27.65 30 29 28.65 29 27V5.5C29 3.85 27.65 2.5 26 2.5ZM23.4 14.5L13.8 24.1C13.55 24.35 13.25 24.5 12.9 24.5C12.55 24.5 12.2 24.35 11.95 24.1L6.6 18.75C6.35 18.5 6.35 18.2 6.6 17.95L7.65 16.9C7.9 16.65 8.2 16.65 8.45 16.9L12.85 21.3L21.5 12.65C21.75 12.4 22.05 12.4 22.3 12.65L23.35 13.7C23.6 13.95 23.6 14.3 23.4 14.5Z" fill="black"/>
        <path d="M9.5 6H20.5C21.05 6 21.5 5.55 21.5 5V3C21.5 1.35 20.15 0 18.5 0H11.5C9.85 0 8.5 1.35 8.5 3V5C8.5 5.55 8.95 6 9.5 6Z" fill="black"/>
    </g>
    <defs>
        <clipPath id="clip0_1804_455">
            <rect width="28" height="30" fill="white" transform="translate(1)"/>
        </clipPath>
    </defs>
</svg>
