<svg role="img" width="167" height="41" viewBox="0 0 167 41" fill="none" xmlns="http://www.w3.org/2000/svg"><g fill="currentColor"><path d="M0 30.5042C0.419346 30.5541 0.820681 30.5965 1.21944 30.6489C2.41584 30.7957 3.62708 30.7873 4.82119 30.6239C6.60217 30.4128 8.32796 29.886 9.91252 29.0699C13.7715 27.0569 16.3442 24.0162 17.5868 19.9279C18.0258 18.4623 18.2203 16.9381 18.1631 15.413C18.1455 14.7297 18.0698 14.0489 17.9367 13.3776C17.8929 13.1681 17.9367 13.1032 18.1682 13.188C19.8913 13.7697 21.4878 14.657 22.8762 15.8047C24.3113 16.9975 25.4869 18.4556 26.3346 20.0937C27.1822 21.7318 27.6849 23.5173 27.8132 25.3458C27.9592 27.364 27.6457 29.3887 26.8948 31.2763C26.1439 33.164 24.9739 34.8684 23.4679 36.2688C21.76 37.8749 19.6608 39.036 17.3656 39.6437C15.9449 40.0371 14.468 40.2056 12.992 40.1426C10.0942 40.0287 7.30086 39.0623 4.98333 37.3718C2.66581 35.6813 0.933943 33.3468 0.0180106 30.6788C0.00809974 30.6211 0.00208219 30.5627 0 30.5042Z"></path><path d="M61.5226 26.7303C61.5249 29.1539 60.8048 31.5265 59.449 33.5625C58.0971 35.6404 56.1878 37.3227 53.9255 38.4291C51.6483 39.611 49.1042 40.2264 46.5213 40.2201C44.5768 40.2207 42.6487 39.8749 40.8331 39.1999C39.0456 38.557 37.402 37.5874 35.9914 36.3438C34.5841 35.1196 33.4465 33.6322 32.6469 31.9711C31.8393 30.2748 31.4365 28.4238 31.4686 26.5557C31.4618 24.6955 31.8726 22.8561 32.6726 21.1653C33.4601 19.5122 34.5857 18.0314 35.9811 16.8126C37.3806 15.5542 39.0273 14.582 40.8228 13.954C44.4884 12.6634 48.5053 12.6634 52.1709 13.954L52.7626 14.2034L53.3517 14.4528V3.97632L61.5226 4.00126V26.7303ZM49.8658 21.0531C48.8405 20.4826 47.679 20.1824 46.4969 20.1824C45.3147 20.1824 44.1532 20.4826 43.1279 21.0531C42.1008 21.6218 41.2305 22.4228 40.5913 23.3878C39.9595 24.3335 39.6301 25.4391 39.6445 26.5657C39.64 27.4248 39.8207 28.2754 40.1752 29.0627C40.5296 29.8501 41.0499 30.557 41.7027 31.138C42.9822 32.3638 44.7084 33.0512 46.5072 33.0512C48.3059 33.0512 50.0321 32.3638 51.3116 31.138C51.9647 30.5573 52.4853 29.8505 52.8398 29.063C53.1942 28.2756 53.3748 27.4249 53.3697 26.5657C53.3832 25.4389 53.053 24.3333 52.4204 23.3878C51.7768 22.4202 50.9 21.6189 49.8658 21.0531Z"></path><path d="M84.6284 13.9611C86.3401 14.6187 87.9105 15.5796 89.2592 16.7948C90.6316 18.0371 91.7246 19.5409 92.4696 21.2119C93.2147 22.8829 93.5958 24.6851 93.589 26.5055V26.8547L93.5633 27.0044L93.5119 27.426H90.3346V27.4759H72.7066C72.8986 28.8451 73.5569 30.1128 74.577 31.0778C75.1764 31.6756 75.8933 32.1507 76.6854 32.4752C77.4775 32.7997 78.3286 32.9668 79.1885 32.9668C80.0484 32.9668 80.8995 32.7997 81.6916 32.4752C82.4837 32.1507 83.2006 31.6756 83.8 31.0778L83.8514 31.0279L83.9286 30.9281L84.0058 30.8533L84.0573 30.7785L88.4617 36.8898C87.3048 37.8246 86.0101 38.5864 84.6207 39.1497C82.6017 39.9191 80.4331 40.2491 78.2681 40.1163C76.1032 39.9835 73.9947 39.3913 72.0918 38.3814C69.9126 37.2287 68.0841 35.541 66.7895 33.4874C65.6443 31.6434 64.9702 29.5607 64.8235 27.4129C64.6767 25.2651 65.0614 23.1144 65.9456 21.1401C66.6901 19.5017 67.7732 18.0287 69.128 16.8122C70.4515 15.5723 72.0184 14.6028 73.7357 13.9611C75.4723 13.2941 77.3245 12.9554 79.1923 12.9634C81.0538 12.9528 82.8997 13.2916 84.6284 13.9611ZM84.2168 22.5319C83.7081 21.9261 83.0996 21.4061 82.4159 20.9929C81.4362 20.4392 80.3225 20.1474 79.1885 20.1474C78.0545 20.1474 76.9408 20.4392 75.9611 20.9929C75.2773 21.4061 74.6688 21.9261 74.1602 22.5319H84.2168Z"></path><path d="M110.319 20.5937C109.818 20.291 109.241 20.1278 108.652 20.1223H108.191C106.115 20.1971 105.065 21.6189 105.065 24.3453V39.3991H96.8662V24.3453C96.8662 17.1165 100.639 13.3159 108.186 12.9434H108.646C109.204 12.9662 109.761 13.0161 110.314 13.093L110.319 20.5937Z"></path><path d="M117.589 10.9553C116.841 10.9703 116.104 10.781 115.462 10.4091C114.82 10.0438 114.287 9.52176 113.918 8.89496C113.539 8.25115 113.336 7.52372 113.329 6.7822C113.314 6.04991 113.509 5.32796 113.892 4.69687C114.277 4.07498 114.813 3.55419 115.454 3.18027C116.097 2.80951 116.834 2.6203 117.582 2.634C118.337 2.62033 119.081 2.80939 119.732 3.18027C120.368 3.55507 120.898 4.07598 121.276 4.69687C121.645 5.33846 121.839 6.06108 121.839 6.79592C121.839 7.53076 121.645 8.25337 121.276 8.89496C120.899 9.51114 120.368 10.0257 119.732 10.3916C119.085 10.7675 118.344 10.9626 117.589 10.9553ZM121.816 13.9861V39.449H113.643V14.006L121.816 13.9861Z"></path><path d="M125.5 4.14995L133.673 4.125V39.3486L125.5 39.4484V4.14995Z"></path><path d="M158.851 38.6534C158.211 38.9277 157.802 39.0749 157.647 39.1248C155.535 39.9069 153.275 40.2447 151.018 40.1157C148.761 39.9867 146.558 39.3938 144.555 38.3765C142.302 37.2593 140.394 35.5858 139.021 33.5248C137.64 31.4436 136.918 29.0153 136.945 26.5405C136.939 24.7011 137.338 22.8816 138.116 21.2039C138.894 19.5261 140.032 18.0289 141.455 16.8123C142.864 15.5797 144.503 14.6203 146.284 13.9861C148.101 13.3163 150.028 12.9715 151.972 12.9684C153.915 12.9601 155.843 13.2983 157.66 13.9662C159.444 14.5916 161.081 15.5548 162.476 16.7998C163.86 18.0217 164.99 19.488 165.808 21.1201C166.607 22.8201 167.017 24.6674 167.012 26.5355L166.986 39.479L158.864 39.4042L158.851 38.6534ZM151.959 20.1473C150.787 20.1402 149.634 20.4318 148.615 20.9929C147.587 21.5611 146.717 22.3622 146.078 23.3277C145.445 24.2823 145.115 25.3959 145.129 26.5305C145.124 27.3861 145.304 28.233 145.659 29.0165C146.013 29.7999 146.534 30.5022 147.187 31.0778C148.474 32.2887 150.197 32.9659 151.99 32.9659C153.783 32.9659 155.506 32.2887 156.793 31.0778C157.446 30.5022 157.967 29.7999 158.321 29.0165C158.676 28.233 158.856 27.3861 158.851 26.5305C158.866 25.3961 158.537 24.2825 157.905 23.3277C157.265 22.3627 156.395 21.5617 155.368 20.9929C154.328 20.4261 153.152 20.1344 151.959 20.1473Z"></path><path fill-rule="evenodd" clip-rule="evenodd" d="M6.54771 12.7263L7.5279 15.6647L10.7103 15.6597L8.13248 17.4682L9.12038 20.4016L6.54771 18.5832L3.97761 20.4016L4.96551 17.4682L2.3877 15.6597L5.57009 15.6647L6.54771 12.7263Z"></path><path fill-rule="evenodd" clip-rule="evenodd" d="M16.3335 0L17.3111 2.93842L20.4935 2.93093L17.9157 4.74188L18.9036 7.6753L16.3335 5.85688L13.7608 7.6753L14.7513 4.74188L12.1709 2.93093L15.3559 2.93842L16.3335 0Z"></path></g></svg>